<svg width="160" height="48" viewBox="0 0 160 48" fill="none" xmlns="http://www.w3.org/2000/svg">
<rect width="160" height="48" rx="6" fill="#373F41"/>
<path d="M35.736 23.7469C35.7016 19.8785 38.8663 17.9966 39.011 17.9089C37.2187 15.2648 34.4408 14.9036 33.4646 14.8748C31.1314 14.6263 28.8683 16.2874 27.6798 16.2874C26.4675 16.2874 24.6373 14.8988 22.6648 14.9396C20.1264 14.9792 17.7518 16.4663 16.4494 18.7755C13.7616 23.484 15.7662 30.4033 18.3413 34.2093C19.6294 36.0744 21.1346 38.1544 23.1048 38.0812C25.0323 38.002 25.7523 36.839 28.0783 36.839C30.383 36.839 31.0591 38.0812 33.0684 38.0344C35.137 38.002 36.4394 36.162 37.6825 34.2813C39.1711 32.1461 39.7689 30.0409 39.7926 29.9329C39.7452 29.9161 35.7764 28.3822 35.736 23.7469ZM31.9404 12.3711C32.9771 11.0592 33.6864 9.2745 33.4895 7.46335C31.989 7.53056 30.1125 8.51355 29.032 9.7966C28.0759 10.9272 27.2219 12.7804 27.4425 14.5231C29.128 14.6503 30.8586 13.6625 31.9404 12.3711Z" fill="white"/>
<path d="M63.6543 37.8138H60.9606L59.485 33.1221H54.3561L52.9506 37.8138H50.328L55.4106 21.8411H58.5492L63.6543 37.8138ZM59.0402 31.1537L57.7058 26.9829C57.5647 26.5569 57.299 25.5535 56.9099 23.974H56.8625C56.7059 24.6533 56.4556 25.6567 56.1128 26.9829L54.8009 31.1537H59.0402ZM76.6995 31.9135C76.6995 33.8723 76.174 35.4206 75.1219 36.5572C74.1801 37.569 73.0094 38.0743 71.6133 38.0743C70.1057 38.0743 69.0216 37.5306 68.3633 36.4408V42.4839H65.8344V30.0819C65.8344 28.8517 65.8024 27.5903 65.7407 26.2964H67.9647L68.1059 28.122H68.1533C68.9967 26.7465 70.2765 26.0588 71.9941 26.0588C73.3368 26.0588 74.4577 26.5953 75.3544 27.6695C76.2499 28.7461 76.6995 30.1599 76.6995 31.9135ZM74.1232 32.0071C74.1232 30.8861 73.8741 29.9619 73.3736 29.2334C72.8267 28.476 72.0925 28.0968 71.1721 28.0968C70.5482 28.0968 69.9812 28.308 69.4747 28.7245C68.967 29.1446 68.6349 29.6931 68.4795 30.3724C68.4102 30.6264 68.3707 30.8879 68.3621 31.1513V33.0729C68.3621 33.9095 68.6159 34.6164 69.1236 35.1949C69.6313 35.771 70.2908 36.0603 71.1021 36.0603C72.0546 36.0603 72.7959 35.687 73.3261 34.9465C73.8575 34.2035 74.1232 33.2241 74.1232 32.0071ZM89.7909 31.9135C89.7909 33.8723 89.2655 35.4206 88.2134 36.5572C87.2704 37.569 86.1009 38.0743 84.7036 38.0743C83.196 38.0743 82.1119 37.5306 81.4535 36.4408V42.4839H78.9247V30.0819C78.9247 28.8517 78.8927 27.5903 78.831 26.2964H81.055L81.1962 28.122H81.2436C82.0858 26.7465 83.3656 26.0588 85.0843 26.0588C86.4259 26.0588 87.5468 26.5953 88.4459 27.6695C89.3402 28.7461 89.7909 30.1599 89.7909 31.9135ZM87.2135 32.0071C87.2135 30.8861 86.9632 29.9619 86.4626 29.2334C85.9158 28.476 85.184 28.0968 84.2635 28.0968C83.6396 28.0968 83.0726 28.308 82.5638 28.7245C82.0561 29.1446 81.7252 29.6931 81.5698 30.3724C81.4927 30.6893 81.4512 30.9473 81.4512 31.1513V33.0729C81.4512 33.9095 81.7062 34.6164 82.2115 35.1949C82.7192 35.7698 83.3787 36.0603 84.1924 36.0603C85.146 36.0603 85.8873 35.687 86.4164 34.9465C86.9478 34.2035 87.2135 33.2241 87.2135 32.0071ZM104.428 33.3334C104.428 34.6932 103.958 35.7986 103.025 36.652C101.998 37.5834 100.563 38.0503 98.725 38.0503C97.0264 38.0503 95.6647 37.719 94.6375 37.0553L95.2223 34.9225C96.3313 35.5874 97.5495 35.9187 98.8756 35.9187C99.8293 35.9187 100.571 35.7002 101.1 35.2669C101.63 34.8324 101.898 34.2515 101.898 33.5266C101.898 32.8773 101.676 32.3336 101.241 31.8907C100.803 31.449 100.08 31.0373 99.063 30.6592C96.2993 29.6162 94.9163 28.0908 94.9163 26.084C94.9163 24.7733 95.4049 23.7003 96.38 22.8613C97.355 22.0236 98.6479 21.6047 100.256 21.6047C101.693 21.6047 102.89 21.858 103.84 22.3633L103.205 24.4493C102.311 23.9596 101.301 23.7147 100.172 23.7147C99.2801 23.7147 98.5803 23.9368 98.0797 24.3784C97.6586 24.7733 97.4451 25.2546 97.4451 25.8259C97.4451 26.456 97.6883 26.9793 98.1722 27.3898C98.5921 27.7679 99.3584 28.1796 100.466 28.6213C101.826 29.1758 102.824 29.8215 103.464 30.5632C104.108 31.305 104.428 32.2303 104.428 33.3334ZM112.81 28.2168H110.023V33.8086C110.023 35.2309 110.514 35.9403 111.499 35.9403C111.95 35.9403 112.325 35.9018 112.622 35.8214L112.692 37.7646C112.194 37.953 111.538 38.0479 110.725 38.0479C109.726 38.0479 108.946 37.7394 108.383 37.1225C107.821 36.5056 107.539 35.4722 107.539 34.0175V28.212H105.879V26.2916H107.539V24.1828L110.023 23.4243V26.2916H112.81V28.2168ZM125.362 31.9603C125.362 33.7306 124.862 35.1841 123.863 36.3207C122.818 37.491 121.428 38.0743 119.695 38.0743C118.022 38.0743 116.693 37.5138 115.701 36.3939C114.709 35.2717 114.214 33.8579 114.214 32.1523C114.214 30.3676 114.726 28.9057 115.747 27.7691C116.771 26.6313 118.149 26.0624 119.882 26.0624C121.552 26.0624 122.894 26.6241 123.909 27.7451C124.879 28.8325 125.362 30.2368 125.362 31.9603ZM122.741 32.0191C122.741 30.9641 122.515 30.0591 122.063 29.3018C121.533 28.3872 120.774 27.9299 119.791 27.9299C118.778 27.9299 118.001 28.3872 117.472 29.3018C117.019 30.0591 116.793 30.9797 116.793 32.0671C116.793 33.1233 117.019 34.0307 117.472 34.7856C118.019 35.7002 118.781 36.1575 119.769 36.1575C120.736 36.1575 121.494 35.6906 122.042 34.7628C122.507 33.9875 122.741 33.0765 122.741 32.0191ZM133.586 28.5468C133.323 28.4988 133.056 28.4751 132.789 28.476C131.899 28.476 131.211 28.8145 130.727 29.4962C130.307 30.0963 130.096 30.8549 130.096 31.7707V37.8138H127.567V29.9235C127.569 28.7145 127.545 27.5055 127.494 26.2976H129.696L129.789 28.5012H129.859C130.127 27.7439 130.547 27.133 131.123 26.6757C131.651 26.2761 132.292 26.0597 132.951 26.0588C133.185 26.0588 133.396 26.0756 133.583 26.1056L133.586 28.5468ZM144.896 31.5102C144.902 31.8992 144.871 32.2879 144.803 32.6708H137.216C137.245 33.8086 137.613 34.68 138.317 35.2801C138.957 35.8154 139.783 36.0843 140.799 36.0843C141.922 36.0843 142.947 35.9043 143.868 35.5406L144.264 37.3157C143.187 37.791 141.916 38.0275 140.449 38.0275C138.684 38.0275 137.298 37.5018 136.29 36.4528C135.284 35.4026 134.78 33.9911 134.78 32.2231C134.78 30.4876 135.249 29.0413 136.187 27.8879C137.169 26.6565 138.496 26.0408 140.166 26.0408C141.807 26.0408 143.049 26.6565 143.892 27.8879C144.56 28.8637 144.896 30.0735 144.896 31.5102ZM142.484 30.8465C142.502 30.0867 142.336 29.4326 141.993 28.8793C141.555 28.1664 140.882 27.8111 139.979 27.8111C139.152 27.8111 138.479 28.158 137.966 28.8541C137.545 29.4074 137.295 30.0723 137.218 30.8441L142.484 30.8465Z" fill="white"/>
<path d="M53.6266 16.194C52.9232 16.194 52.3147 16.1592 51.8082 16.1004V8.37809C52.5166 8.26736 53.2324 8.21279 53.9492 8.21486C56.8493 8.21486 58.1849 9.65873 58.1849 12.0124C58.1849 14.7273 56.6074 16.194 53.6266 16.194ZM54.0512 9.20505C53.6598 9.20505 53.3265 9.22905 53.0501 9.28666V15.157C53.1996 15.181 53.4866 15.1918 53.8899 15.1918C55.7901 15.1918 56.8719 14.0972 56.8719 12.0472C56.8719 10.2192 55.8933 9.20505 54.0512 9.20505ZM62.3471 16.2528C60.7126 16.2528 59.6534 15.0178 59.6534 13.341C59.6534 11.5935 60.7351 10.3477 62.4396 10.3477C64.0504 10.3477 65.1333 11.5239 65.1333 13.2486C65.1333 15.0178 64.0172 16.2528 62.3471 16.2528ZM62.3945 11.267C61.4966 11.267 60.9214 12.1168 60.9214 13.305C60.9214 14.4705 61.5085 15.3202 62.3827 15.3202C63.2569 15.3202 63.844 14.4116 63.844 13.281C63.844 12.1288 63.2687 11.267 62.3945 11.267ZM74.4541 10.4641L72.7045 16.1244H71.5646L70.8399 13.6663C70.6597 13.065 70.5096 12.4549 70.3903 11.8384H70.3666C70.2753 12.4553 70.1021 13.0734 69.9182 13.6663L69.1473 16.1244H67.9955L66.3491 10.4641H67.6266L68.26 13.155C68.4095 13.7959 68.5352 14.4008 68.6396 14.9721H68.6633C68.7546 14.4957 68.9041 13.9003 69.1235 13.167L69.9182 10.4653H70.9312L71.6915 13.1094C71.8754 13.7503 72.0248 14.3792 72.1411 14.9734H72.1743C72.2549 14.3912 72.3819 13.7731 72.5539 13.1094L73.2335 10.4653L74.4541 10.4641ZM80.8948 16.1244H79.6517V12.8741C79.6517 11.8732 79.2722 11.3715 78.5237 11.3715C77.7871 11.3715 77.2806 12.0124 77.2806 12.7577V16.1244H76.0376V12.082C76.0376 11.5815 76.0257 11.045 75.9913 10.4629H77.0849L77.143 11.3367H77.1774C77.5119 10.7317 78.1904 10.3477 78.9507 10.3477C80.125 10.3477 80.896 11.2562 80.896 12.7349L80.8948 16.1244ZM84.3228 16.1244H83.0785V7.86679H84.3228V16.1244ZM88.855 16.2528C87.2217 16.2528 86.1613 15.0178 86.1613 13.341C86.1613 11.5935 87.243 10.3477 88.9463 10.3477C90.5583 10.3477 91.6401 11.5239 91.6401 13.2486C91.6413 15.0178 90.5239 16.2528 88.855 16.2528ZM88.9013 11.267C88.0034 11.267 87.4281 12.1168 87.4281 13.305C87.4281 14.4705 88.0164 15.3202 88.8882 15.3202C89.7636 15.3202 90.3496 14.4116 90.3496 13.281C90.3507 12.1288 89.7766 11.267 88.9013 11.267ZM96.5412 16.1244L96.4511 15.4726H96.4179C96.0383 15.9971 95.4844 16.2528 94.7822 16.2528C93.7799 16.2528 93.0682 15.5423 93.0682 14.5869C93.0682 13.1898 94.265 12.4673 96.3372 12.4673V12.3629C96.3372 11.6175 95.947 11.2442 95.176 11.2442C94.6244 11.2442 94.1405 11.3847 93.7146 11.6643L93.462 10.8374C93.9791 10.5109 94.6244 10.3477 95.3824 10.3477C96.8437 10.3477 97.5815 11.1278 97.5815 12.6893V14.7741C97.5815 15.3454 97.6064 15.7883 97.6621 16.1256L96.5412 16.1244ZM96.3704 13.305C94.9897 13.305 94.297 13.6435 94.297 14.4464C94.297 15.0406 94.6541 15.331 95.1499 15.331C95.7821 15.331 96.3704 14.8425 96.3704 14.1788V13.305ZM103.618 16.1244L103.56 15.2158H103.525C103.168 15.9023 102.568 16.2528 101.729 16.2528C100.381 16.2528 99.382 15.0526 99.382 13.3638C99.382 11.5935 100.418 10.3465 101.831 10.3465C102.58 10.3465 103.11 10.6021 103.409 11.1158H103.434V7.86679H104.678V14.5989C104.678 15.1462 104.691 15.6587 104.724 16.1244H103.618ZM103.434 12.7937C103.434 12.0016 102.916 11.3259 102.124 11.3259C101.203 11.3259 100.639 12.1528 100.639 13.317C100.639 14.4585 101.224 15.2398 102.099 15.2398C102.881 15.2398 103.434 14.5521 103.434 13.7371V12.7937ZM112.567 16.2528C110.934 16.2528 109.875 15.0178 109.875 13.341C109.875 11.5935 110.956 10.3477 112.66 10.3477C114.272 10.3477 115.353 11.5239 115.353 13.2486C115.355 15.0178 114.238 16.2528 112.567 16.2528ZM112.613 11.267C111.717 11.267 111.141 12.1168 111.141 13.305C111.141 14.4705 111.729 15.3202 112.602 15.3202C113.477 15.3202 114.063 14.4116 114.063 13.281C114.065 12.1288 113.49 11.267 112.613 11.267ZM122.039 16.1244H120.794V12.8741C120.794 11.8732 120.415 11.3715 119.666 11.3715C118.93 11.3715 118.424 12.0124 118.424 12.7577V16.1244H117.18V12.082C117.18 11.5815 117.168 11.045 117.134 10.4629H118.227L118.286 11.3367H118.32C118.653 10.7317 119.333 10.3465 120.092 10.3465C121.266 10.3465 122.039 11.255 122.039 12.7337V16.1244ZM130.402 11.4075H129.034V14.156C129.034 14.8557 129.274 15.205 129.758 15.205C129.977 15.205 130.161 15.181 130.31 15.1462L130.344 16.1016C130.103 16.1952 129.78 16.242 129.38 16.242C128.4 16.242 127.814 15.6947 127.814 14.2616V11.4075H126.998V10.4641H127.814V9.42709L129.034 9.05382V10.4629H130.402V11.4075ZM136.983 16.1244H135.741V12.8982C135.741 11.8852 135.362 11.3727 134.613 11.3727C133.969 11.3727 133.369 11.8155 133.369 12.7121V16.1244H132.127V7.86679H133.369V11.267H133.393C133.785 10.6501 134.352 10.3465 135.075 10.3465C136.259 10.3465 136.983 11.2778 136.983 12.7577V16.1244ZM143.725 13.5967H139.994C140.018 14.6685 140.719 15.2734 141.757 15.2734C142.309 15.2734 142.816 15.1798 143.265 15.0058L143.458 15.8795C142.929 16.1124 142.306 16.2288 141.581 16.2288C139.832 16.2288 138.796 15.1102 138.796 13.3758C138.796 11.6403 139.857 10.3357 141.441 10.3357C142.871 10.3357 143.767 11.4075 143.767 13.0266C143.776 13.2177 143.761 13.409 143.725 13.5967ZM142.585 12.7001C142.585 11.8263 142.15 11.2094 141.355 11.2094C140.641 11.2094 140.076 11.8384 139.996 12.7001H142.585Z" fill="white"/>
</svg>
