<svg width="160" height="48" viewBox="0 0 160 48" fill="none" xmlns="http://www.w3.org/2000/svg">
<rect width="160" height="48" rx="6" fill="#373F41"/>
<path d="M56.1778 12.2444C56.1778 13.2041 55.9407 14.0438 55.3481 14.6436C54.637 15.3633 53.8074 15.7232 52.7407 15.7232C51.6741 15.7232 50.8444 15.3633 50.1333 14.6436C49.4222 13.9239 49.0667 13.0841 49.0667 12.0045C49.0667 10.9249 49.4222 10.0852 50.1333 9.36545C50.8444 8.6457 51.6741 8.28583 52.7407 8.28583C53.2148 8.28583 53.6889 8.40579 54.1629 8.6457C54.637 8.88562 54.9926 9.12553 55.2296 9.48541L54.637 10.0852C54.1629 9.48541 53.5704 9.24549 52.7407 9.24549C52.0296 9.24549 51.3185 9.48541 50.8444 10.0852C50.2518 10.565 50.0148 11.2848 50.0148 12.1245C50.0148 12.9642 50.2518 13.6839 50.8444 14.1638C51.437 14.6436 52.0296 15.0035 52.7407 15.0035C53.5704 15.0035 54.1629 14.7636 54.7555 14.1638C55.1111 13.8039 55.3481 13.3241 55.3481 12.7243H52.7407V11.7646H56.1778V12.2444ZM61.6296 9.24549H58.4296V11.5247H61.3926V12.3644H58.4296V14.6436H61.6296V15.6033H57.4815V8.40579H61.6296V9.24549ZM65.5407 15.6033H64.5926V9.24549H62.5778V8.40579H67.5555V9.24549H65.5407V15.6033ZM70.9926 15.6033V8.40579H71.9407V15.6033H70.9926ZM75.9704 15.6033H75.0222V9.24549H73.0074V8.40579H77.8667V9.24549H75.8518V15.6033H75.9704ZM87.2296 14.6436C86.5185 15.3633 85.6889 15.7232 84.6222 15.7232C83.5555 15.7232 82.7259 15.3633 82.0148 14.6436C81.3037 13.9239 80.9481 13.0841 80.9481 12.0045C80.9481 10.9249 81.3037 10.0852 82.0148 9.36545C82.7259 8.6457 83.5555 8.28583 84.6222 8.28583C85.6889 8.28583 86.5185 8.6457 87.2296 9.36545C87.9407 10.0852 88.2963 10.9249 88.2963 12.0045C88.2963 13.0841 87.9407 13.9239 87.2296 14.6436ZM82.7259 14.0438C83.2 14.5236 83.9111 14.8835 84.6222 14.8835C85.3333 14.8835 86.0444 14.6436 86.5185 14.0438C86.9926 13.564 87.3481 12.8442 87.3481 12.0045C87.3481 11.1648 87.1111 10.4451 86.5185 9.96524C86.0444 9.48541 85.3333 9.12553 84.6222 9.12553C83.9111 9.12553 83.2 9.36545 82.7259 9.96524C82.2518 10.4451 81.8963 11.1648 81.8963 12.0045C81.8963 12.8442 82.1333 13.564 82.7259 14.0438ZM89.6 15.6033V8.40579H90.6667L94.1037 14.0438V8.40579H95.0518V15.6033H94.1037L90.4296 9.72532V15.6033H89.6Z" fill="white"/>
<path d="M80.7112 26.1596C77.8667 26.1596 75.6149 28.3189 75.6149 31.3178C75.6149 34.1968 77.8667 36.476 80.7112 36.476C83.5556 36.476 85.8075 34.3168 85.8075 31.3178C85.8075 28.1989 83.5556 26.1596 80.7112 26.1596ZM80.7112 34.3168C79.1704 34.3168 77.8667 32.9972 77.8667 31.1979C77.8667 29.3985 79.1704 28.079 80.7112 28.079C82.2519 28.079 83.5556 29.2785 83.5556 31.1979C83.5556 32.9972 82.2519 34.3168 80.7112 34.3168ZM69.6889 26.1596C66.8445 26.1596 64.5927 28.3189 64.5927 31.3178C64.5927 34.1968 66.8445 36.476 69.6889 36.476C72.5334 36.476 74.7852 34.3168 74.7852 31.3178C74.7852 28.1989 72.5334 26.1596 69.6889 26.1596ZM69.6889 34.3168C68.1482 34.3168 66.8445 32.9972 66.8445 31.1979C66.8445 29.3985 68.1482 28.079 69.6889 28.079C71.2297 28.079 72.5334 29.2785 72.5334 31.1979C72.5334 32.9972 71.2297 34.3168 69.6889 34.3168ZM56.5334 27.7191V29.8783H61.6297C61.5112 31.0779 61.0371 32.0376 60.4445 32.6374C59.7334 33.3571 58.5482 34.1968 56.5334 34.1968C53.3334 34.1968 50.963 31.6777 50.963 28.4388C50.963 25.2 53.4519 22.6809 56.5334 22.6809C58.1927 22.6809 59.4964 23.4006 60.4445 24.2403L61.9853 22.6809C60.6815 21.4813 59.0223 20.5216 56.6519 20.5216C52.3853 20.5216 48.7112 24.1203 48.7112 28.4388C48.7112 32.7573 52.3853 36.3561 56.6519 36.3561C59.0223 36.3561 60.6816 35.6363 62.1038 34.0769C63.526 32.6374 64.0001 30.5981 64.0001 29.0386C64.0001 28.5588 64.0001 28.079 63.8815 27.7191H56.5334ZM110.341 29.3985C109.867 28.1989 108.682 26.1596 106.074 26.1596C103.467 26.1596 101.333 28.1989 101.333 31.3178C101.333 34.1968 103.467 36.476 106.311 36.476C108.563 36.476 109.985 35.0365 110.459 34.1968L108.8 32.9972C108.207 33.8369 107.496 34.4367 106.311 34.4367C105.126 34.4367 104.415 33.9569 103.822 32.8773L110.578 29.9983L110.341 29.3985ZM103.467 31.0779C103.467 29.1586 105.007 28.079 106.074 28.079C106.904 28.079 107.733 28.5588 107.97 29.1586L103.467 31.0779ZM97.8963 35.9962H100.148V21.0014H97.8963V35.9962ZM94.3408 27.2393C93.7482 26.6395 92.8001 26.0397 91.6149 26.0397C89.126 26.0397 86.7556 28.3189 86.7556 31.1979C86.7556 34.0769 89.0075 36.2361 91.6149 36.2361C92.8001 36.2361 93.7482 35.6363 94.2223 35.0365H94.3408V35.7563C94.3408 37.6756 93.2741 38.7552 91.6149 38.7552C90.3112 38.7552 89.363 37.7956 89.126 36.9559L87.2297 37.7956C87.8223 39.1151 89.2445 40.7945 91.7334 40.7945C94.3408 40.7945 96.4741 39.2351 96.4741 35.5164V26.3995H94.3408V27.2393ZM91.7334 34.3168C90.1926 34.3168 88.8889 32.9972 88.8889 31.1979C88.8889 29.3985 90.1926 28.079 91.7334 28.079C93.2741 28.079 94.4593 29.3985 94.4593 31.1979C94.4593 32.9972 93.2741 34.3168 91.7334 34.3168ZM120.652 21.0014H115.319V35.9962H117.57V30.3582H120.652C123.141 30.3582 125.511 28.5588 125.511 25.6798C125.511 22.8008 123.141 21.0014 120.652 21.0014ZM120.77 28.1989H117.57V23.0407H120.77C122.43 23.0407 123.378 24.4802 123.378 25.5598C123.259 26.8794 122.311 28.1989 120.77 28.1989ZM134.4 26.0397C132.741 26.0397 131.082 26.7594 130.489 28.3189L132.504 29.1586C132.978 28.3189 133.689 28.079 134.519 28.079C135.704 28.079 136.77 28.7987 136.889 29.9983V30.1182C136.533 29.8783 135.585 29.5185 134.637 29.5185C132.504 29.5185 130.37 30.718 130.37 32.8773C130.37 34.9166 132.148 36.2361 134.044 36.2361C135.585 36.2361 136.296 35.5164 136.889 34.7966H137.007V35.9962H139.141V30.2382C138.904 27.5991 136.889 26.0397 134.4 26.0397ZM134.163 34.3168C133.452 34.3168 132.385 33.9569 132.385 32.9972C132.385 31.7977 133.689 31.4378 134.756 31.4378C135.704 31.4378 136.178 31.6777 136.77 31.9176C136.533 33.3571 135.348 34.3168 134.163 34.3168ZM146.607 26.3995L144.119 32.8773H144L141.393 26.3995H139.022L142.933 35.5164L140.682 40.5546H142.933L148.978 26.3995H146.607ZM126.696 35.9962H128.948V21.0014H126.696V35.9962Z" fill="white"/>
<path d="M12.3501 9.12C11.9945 9.47987 11.8519 9.96488 11.8519 10.6846V37.1953C11.8519 37.9151 11.9945 38.6401 12.3501 39L12.563 38.9947L27.2593 24.1199V23.88L12.3501 9.12Z" fill="white"/>
<path d="M32.1201 29.04L27.1409 24.2397V23.8798L32.0001 18.9615H32.1212L37.926 22.4403C39.5853 23.4 39.5853 24.9595 37.926 25.9191L32.1201 29.04Z" fill="#E2E5E6"/>
<path d="M32.1186 29.0382L27.1409 24L12.326 38.9948C12.9186 39.5945 13.7483 39.5945 14.8149 39.1147L32.1186 29.0382Z" fill="#F4F5F4"/>
<path d="M32.1186 18.961L14.8149 9.0045C13.7483 8.40471 12.9186 8.52467 12.326 9.12446L27.1409 23.9992L32.1186 18.961Z" fill="#F4F5F4"/>
</svg>
