<svg width="168" height="168" viewBox="0 0 168 168" fill="none" xmlns="http://www.w3.org/2000/svg">
<g filter="url(#filter0_d)">
<circle cx="84" cy="80" r="80" fill="#EF5F40"/>
<path fill-rule="evenodd" clip-rule="evenodd" d="M126 148.101C148.805 134.007 164 108.778 164 80.0001C164 51.2221 148.805 25.9931 126 11.8988C103.195 25.9931 88 51.2221 88 80.0001C88 108.778 103.195 134.007 126 148.101Z" fill="#FF8A71"/>
<path d="M28.5 88.15C28.0167 88.15 27.625 88.0083 27.325 87.725C27.0417 87.425 26.9 87.025 26.9 86.525V71.9C26.9 71.4167 27.0333 71.0417 27.3 70.775C27.5833 70.5083 27.9667 70.375 28.45 70.375H34.6C36.4833 70.375 37.95 70.85 39 71.8C40.05 72.7333 40.575 74.05 40.575 75.75C40.575 77.45 40.05 78.775 39 79.725C37.95 80.675 36.4833 81.15 34.6 81.15H30.125V86.525C30.125 87.025 29.975 87.425 29.675 87.725C29.3917 88.0083 29 88.15 28.5 88.15ZM34.2 78.675C36.4167 78.675 37.525 77.7083 37.525 75.775C37.525 73.8417 36.4167 72.875 34.2 72.875H30.125V78.675H34.2ZM50.4598 75.525C50.8931 75.4917 51.2348 75.5833 51.4848 75.8C51.7348 76.0167 51.8598 76.3417 51.8598 76.775C51.8598 77.225 51.7514 77.5583 51.5348 77.775C51.3181 77.9917 50.9264 78.1333 50.3598 78.2L49.6098 78.275C48.6264 78.375 47.9014 78.7083 47.4348 79.275C46.9848 79.8417 46.7598 80.55 46.7598 81.4V86.65C46.7598 87.1333 46.6098 87.5083 46.3098 87.775C46.0098 88.025 45.6348 88.15 45.1848 88.15C44.7348 88.15 44.3598 88.025 44.0598 87.775C43.7764 87.5083 43.6348 87.1333 43.6348 86.65V76.975C43.6348 76.5083 43.7764 76.15 44.0598 75.9C44.3598 75.65 44.7264 75.525 45.1598 75.525C45.5931 75.525 45.9431 75.65 46.2098 75.9C46.4764 76.1333 46.6098 76.475 46.6098 76.925V77.925C46.9264 77.1917 47.3931 76.625 48.0098 76.225C48.6431 75.825 49.3431 75.6 50.1098 75.55L50.4598 75.525ZM55.5051 88.15C55.0551 88.15 54.6801 88.025 54.3801 87.775C54.0967 87.5083 53.9551 87.1333 53.9551 86.65V77C53.9551 76.5167 54.0967 76.15 54.3801 75.9C54.6801 75.65 55.0551 75.525 55.5051 75.525C55.9551 75.525 56.3301 75.65 56.6301 75.9C56.9301 76.15 57.0801 76.5167 57.0801 77V86.65C57.0801 87.1333 56.9301 87.5083 56.6301 87.775C56.3301 88.025 55.9551 88.15 55.5051 88.15ZM55.5051 73.3C54.9384 73.3 54.4884 73.15 54.1551 72.85C53.8217 72.5333 53.6551 72.125 53.6551 71.625C53.6551 71.125 53.8217 70.725 54.1551 70.425C54.4884 70.125 54.9384 69.975 55.5051 69.975C56.0551 69.975 56.4967 70.125 56.8301 70.425C57.1801 70.725 57.3551 71.125 57.3551 71.625C57.3551 72.125 57.1884 72.5333 56.8551 72.85C56.5217 73.15 56.0717 73.3 55.5051 73.3ZM70.1527 85.65C71.0861 85.65 71.5527 86.0417 71.5527 86.825C71.5527 87.1917 71.4361 87.4833 71.2027 87.7C70.9694 87.9 70.6194 88 70.1527 88H61.8027C61.3861 88 61.0444 87.8667 60.7777 87.6C60.5111 87.3333 60.3777 87.0167 60.3777 86.65C60.3777 86.2667 60.5277 85.9 60.8277 85.55L67.2527 78.125H61.6777C61.2111 78.125 60.8611 78.025 60.6277 77.825C60.3944 77.625 60.2777 77.3333 60.2777 76.95C60.2777 76.5667 60.3944 76.275 60.6277 76.075C60.8611 75.875 61.2111 75.775 61.6777 75.775H69.7527C70.1861 75.775 70.5277 75.9083 70.7777 76.175C71.0444 76.425 71.1777 76.7417 71.1777 77.125C71.1777 77.525 71.0361 77.8917 70.7527 78.225L64.3027 85.65H70.1527ZM83.9045 84.65C84.1878 84.65 84.4128 84.7583 84.5795 84.975C84.7628 85.1917 84.8545 85.4833 84.8545 85.85C84.8545 86.3667 84.5462 86.8 83.9295 87.15C83.3628 87.4667 82.7212 87.725 82.0045 87.925C81.2878 88.1083 80.6045 88.2 79.9545 88.2C77.9878 88.2 76.4295 87.6333 75.2795 86.5C74.1295 85.3667 73.5545 83.8167 73.5545 81.85C73.5545 80.6 73.8045 79.4917 74.3045 78.525C74.8045 77.5583 75.5045 76.8083 76.4045 76.275C77.3212 75.7417 78.3545 75.475 79.5045 75.475C80.6045 75.475 81.5628 75.7167 82.3795 76.2C83.1962 76.6833 83.8295 77.3667 84.2795 78.25C84.7295 79.1333 84.9545 80.175 84.9545 81.375C84.9545 82.0917 84.6378 82.45 84.0045 82.45H76.6295C76.7295 83.6 77.0545 84.45 77.6045 85C78.1545 85.5333 78.9545 85.8 80.0045 85.8C80.5378 85.8 81.0045 85.7333 81.4045 85.6C81.8212 85.4667 82.2878 85.2833 82.8045 85.05C83.3045 84.7833 83.6712 84.65 83.9045 84.65ZM79.5795 77.675C78.7295 77.675 78.0462 77.9417 77.5295 78.475C77.0295 79.0083 76.7295 79.775 76.6295 80.775H82.2795C82.2462 79.7583 81.9962 78.9917 81.5295 78.475C81.0628 77.9417 80.4128 77.675 79.5795 77.675ZM102.636 85.975C102.836 86.275 102.936 86.5667 102.936 86.85C102.936 87.2333 102.777 87.55 102.461 87.8C102.161 88.05 101.802 88.175 101.386 88.175C101.119 88.175 100.861 88.1167 100.611 88C100.377 87.8667 100.177 87.675 100.011 87.425L96.6857 82.375C96.3524 81.8417 95.9941 81.4667 95.6107 81.25C95.2441 81.0333 94.7607 80.925 94.1607 80.925H91.7107V86.525C91.7107 87.025 91.5691 87.425 91.2857 87.725C91.0024 88.0083 90.6191 88.15 90.1357 88.15C89.6524 88.15 89.2607 88.0083 88.9607 87.725C88.6774 87.425 88.5357 87.025 88.5357 86.525V71.9C88.5357 71.4167 88.6691 71.0417 88.9357 70.775C89.2191 70.5083 89.6024 70.375 90.0857 70.375H96.3357C98.3357 70.375 99.8524 70.825 100.886 71.725C101.936 72.6083 102.461 73.8917 102.461 75.575C102.461 76.9417 102.069 78.0667 101.286 78.95C100.519 79.8167 99.4274 80.375 98.0107 80.625C98.4941 80.7417 98.9191 80.95 99.2857 81.25C99.6524 81.55 100.011 81.9667 100.361 82.5L102.636 85.975ZM95.8857 78.45C97.1024 78.45 97.9941 78.225 98.5607 77.775C99.1274 77.3083 99.4107 76.6 99.4107 75.65C99.4107 74.6833 99.1274 73.9833 98.5607 73.55C97.9941 73.1 97.1024 72.875 95.8857 72.875H91.6857V78.45H95.8857ZM107.944 88.15C107.494 88.15 107.119 88.025 106.819 87.775C106.535 87.5083 106.394 87.1333 106.394 86.65V77C106.394 76.5167 106.535 76.15 106.819 75.9C107.119 75.65 107.494 75.525 107.944 75.525C108.394 75.525 108.769 75.65 109.069 75.9C109.369 76.15 109.519 76.5167 109.519 77V86.65C109.519 87.1333 109.369 87.5083 109.069 87.775C108.769 88.025 108.394 88.15 107.944 88.15ZM107.944 73.3C107.377 73.3 106.927 73.15 106.594 72.85C106.26 72.5333 106.094 72.125 106.094 71.625C106.094 71.125 106.26 70.725 106.594 70.425C106.927 70.125 107.377 69.975 107.944 69.975C108.494 69.975 108.935 70.125 109.269 70.425C109.619 70.725 109.794 71.125 109.794 71.625C109.794 72.125 109.627 72.5333 109.294 72.85C108.96 73.15 108.51 73.3 107.944 73.3ZM120.591 75.475C122.058 75.475 123.15 75.8917 123.866 76.725C124.583 77.5583 124.941 78.8167 124.941 80.5V86.65C124.941 87.1167 124.8 87.4833 124.516 87.75C124.25 88.0167 123.875 88.15 123.391 88.15C122.908 88.15 122.525 88.0167 122.241 87.75C121.958 87.4833 121.816 87.1167 121.816 86.65V80.675C121.816 79.725 121.633 79.0333 121.266 78.6C120.916 78.1667 120.358 77.95 119.591 77.95C118.691 77.95 117.966 78.2333 117.416 78.8C116.883 79.3667 116.616 80.125 116.616 81.075V86.65C116.616 87.1167 116.475 87.4833 116.191 87.75C115.908 88.0167 115.525 88.15 115.041 88.15C114.558 88.15 114.175 88.0167 113.891 87.75C113.625 87.4833 113.491 87.1167 113.491 86.65V76.975C113.491 76.5417 113.633 76.1917 113.916 75.925C114.2 75.6583 114.583 75.525 115.066 75.525C115.5 75.525 115.85 75.6583 116.116 75.925C116.4 76.175 116.541 76.5083 116.541 76.925V77.6C116.958 76.9167 117.516 76.3917 118.216 76.025C118.916 75.6583 119.708 75.475 120.591 75.475ZM139.215 75.525C139.682 75.525 140.057 75.6583 140.34 75.925C140.624 76.1917 140.765 76.55 140.765 77V86.875C140.765 88.7917 140.232 90.2417 139.165 91.225C138.099 92.2083 136.524 92.7 134.44 92.7C132.624 92.7 131.107 92.3583 129.89 91.675C129.274 91.3083 128.965 90.8667 128.965 90.35C128.965 89.9833 129.049 89.6917 129.215 89.475C129.399 89.2583 129.632 89.15 129.915 89.15C130.065 89.15 130.249 89.1833 130.465 89.25C130.682 89.3333 130.907 89.425 131.14 89.525C131.74 89.775 132.274 89.9667 132.74 90.1C133.224 90.2333 133.774 90.3 134.39 90.3C136.574 90.3 137.665 89.2333 137.665 87.1V85.5C137.299 86.1833 136.765 86.7167 136.065 87.1C135.365 87.4667 134.565 87.65 133.665 87.65C132.599 87.65 131.649 87.4 130.815 86.9C129.999 86.3833 129.357 85.6667 128.89 84.75C128.424 83.8333 128.19 82.775 128.19 81.575C128.19 80.375 128.415 79.3167 128.865 78.4C129.332 77.4667 129.982 76.75 130.815 76.25C131.649 75.7333 132.599 75.475 133.665 75.475C134.565 75.475 135.365 75.6667 136.065 76.05C136.765 76.4167 137.299 76.9417 137.665 77.625V76.975C137.665 76.5417 137.807 76.1917 138.09 75.925C138.374 75.6583 138.749 75.525 139.215 75.525ZM134.49 85.225C135.49 85.225 136.265 84.9 136.815 84.25C137.382 83.6 137.665 82.7083 137.665 81.575C137.665 80.425 137.382 79.525 136.815 78.875C136.265 78.225 135.49 77.9 134.49 77.9C133.507 77.9 132.732 78.225 132.165 78.875C131.599 79.525 131.315 80.425 131.315 81.575C131.315 82.7083 131.599 83.6 132.165 84.25C132.732 84.9 133.507 85.225 134.49 85.225Z" fill="white"/>
</g>
<defs>
<filter id="filter0_d" x="0" y="0" width="168" height="168" filterUnits="userSpaceOnUse" color-interpolation-filters="sRGB">
<feFlood flood-opacity="0" result="BackgroundImageFix"/>
<feColorMatrix in="SourceAlpha" type="matrix" values="0 0 0 0 0 0 0 0 0 0 0 0 0 0 0 0 0 0 127 0"/>
<feOffset dy="4"/>
<feGaussianBlur stdDeviation="2"/>
<feColorMatrix type="matrix" values="0 0 0 0 0 0 0 0 0 0 0 0 0 0 0 0 0 0 0.25 0"/>
<feBlend mode="normal" in2="BackgroundImageFix" result="effect1_dropShadow"/>
<feBlend mode="normal" in="SourceGraphic" in2="effect1_dropShadow" result="shape"/>
</filter>
</defs>
</svg>
